<svg xmlns="http://www.w3.org/2000/svg" xmlns:xlink="http://www.w3.org/1999/xlink" id="Layer_1" x="0" y="0" version="1.1" viewBox="0 0 80.9 104.6" xml:space="preserve" style="enable-background:new 0 0 80.9 104.6"><style type="text/css">.st0{fill:url(#SVGID_1_)}.st1{fill:url(#SVGID_2_)}.st2{fill:url(#SVGID_3_)}.st3{fill:url(#SVGID_4_)}.st4{fill:url(#SVGID_5_)}.st5{fill:url(#SVGID_6_)}.st6{fill:url(#SVGID_7_)}.st7{fill:url(#SVGID_8_)}.st8{fill:url(#SVGID_9_)}.st9{fill:url(#SVGID_10_)}</style><title>Artboard 1</title><g><linearGradient id="SVGID_1_" x1="-13.211" x2="49.616" y1="-21.839" y2="86.981" gradientUnits="userSpaceOnUse"><stop offset="0" style="stop-color:#8c42a1"/><stop offset=".389" style="stop-color:#922c88"/><stop offset=".731" style="stop-color:#a02d6e"/><stop offset=".86" style="stop-color:#f3506f"/><stop offset=".985" style="stop-color:#fcb450"/></linearGradient><path d="M19.8,65.5c0.7,1.3,2.2,1.6,3.3,0.7l20.8-15.4c1.2-0.9,1.3-2.4,0.2-3.4L29.5,32.9c-1-1-3-2.1-4.4-2.4L3.5,25.8 c1.1,4.5,1.9,9.1,2.5,13.8L19.8,65.5z" class="st0"/><linearGradient id="SVGID_2_" x1="-41.749" x2="21.078" y1="-5.363" y2="103.457" gradientUnits="userSpaceOnUse"><stop offset="0" style="stop-color:#8c42a1"/><stop offset=".389" style="stop-color:#922c88"/><stop offset=".731" style="stop-color:#a02d6e"/><stop offset=".86" style="stop-color:#f3506f"/><stop offset=".985" style="stop-color:#fcb450"/></linearGradient><path d="M9.1,74.4l-4.4-0.8c-0.5,2.7-1.1,5.3-1.9,7.8l6.7-5C10.7,75.6,10.5,74.6,9.1,74.4z" class="st1"/><linearGradient id="SVGID_3_" x1="-34.238" x2="28.589" y1="-9.699" y2="99.121" gradientUnits="userSpaceOnUse"><stop offset="0" style="stop-color:#8c42a1"/><stop offset=".389" style="stop-color:#922c88"/><stop offset=".731" style="stop-color:#a02d6e"/><stop offset=".86" style="stop-color:#f3506f"/><stop offset=".985" style="stop-color:#fcb450"/></linearGradient><path d="M15.3,68.1L6.7,52c0,5.5-0.4,11-1.2,16.4l8.4,1.5C15.3,70.2,16,69.4,15.3,68.1z" class="st2"/><linearGradient id="SVGID_4_" x1="-13.873" x2="48.954" y1="-21.457" y2="87.363" gradientUnits="userSpaceOnUse"><stop offset="0" style="stop-color:#8c42a1"/><stop offset=".389" style="stop-color:#922c88"/><stop offset=".731" style="stop-color:#a02d6e"/><stop offset=".86" style="stop-color:#f3506f"/><stop offset=".985" style="stop-color:#fcb450"/></linearGradient><path d="M21.6,24.9L1.9,5.2c-2.4,4-2.6,10.1,0.6,17l18.3,4C22.3,26.5,22.6,25.9,21.6,24.9z" class="st3"/><linearGradient id="SVGID_5_" x1="7.049" x2="69.876" y1="-33.536" y2="75.284" gradientUnits="userSpaceOnUse"><stop offset="0" style="stop-color:#8c42a1"/><stop offset=".389" style="stop-color:#922c88"/><stop offset=".731" style="stop-color:#a02d6e"/><stop offset=".86" style="stop-color:#f3506f"/><stop offset=".985" style="stop-color:#fcb450"/></linearGradient><path d="M35.4,29.3l26.4,5.7c1.4,0.3,3.5-0.1,4.6-1l0.9-0.7c-14.4-11-28.8-21-44.8-29.8c-6.9-4-12.9-4.3-17-2L31,26.9 C32,28,34,29,35.4,29.3z" class="st4"/><linearGradient id="SVGID_6_" x1="8.249" x2="71.077" y1="-34.229" y2="74.591" gradientUnits="userSpaceOnUse"><stop offset="0" style="stop-color:#8c42a1"/><stop offset=".389" style="stop-color:#922c88"/><stop offset=".731" style="stop-color:#a02d6e"/><stop offset=".86" style="stop-color:#f3506f"/><stop offset=".985" style="stop-color:#fcb450"/></linearGradient><path d="M58.4,37.7l-18.7-4.1c-1.4-0.3-1.7,0.3-0.7,1.3l9.4,9.4c1,1,2.8,1.1,3.9,0.3l6.5-4.8 C60,38.9,59.8,38,58.4,37.7z" class="st5"/><linearGradient id="SVGID_7_" x1="-18.25" x2="44.577" y1="-18.93" y2="89.891" gradientUnits="userSpaceOnUse"><stop offset="0" style="stop-color:#8c42a1"/><stop offset=".389" style="stop-color:#922c88"/><stop offset=".731" style="stop-color:#a02d6e"/><stop offset=".86" style="stop-color:#f3506f"/><stop offset=".985" style="stop-color:#fcb450"/></linearGradient><path d="M27.4,79.8l7.4,14c5.9-3.7,11.7-7.5,17.4-11.5L28.8,78C27.3,77.8,26.7,78.6,27.4,79.8z" class="st6"/><linearGradient id="SVGID_8_" x1="-8.623" x2="54.205" y1="-24.488" y2="84.332" gradientUnits="userSpaceOnUse"><stop offset="0" style="stop-color:#8c42a1"/><stop offset=".389" style="stop-color:#922c88"/><stop offset=".731" style="stop-color:#a02d6e"/><stop offset=".86" style="stop-color:#f3506f"/><stop offset=".985" style="stop-color:#fcb450"/></linearGradient><path d="M51.6,54.9c-1-1-2.8-1.1-3.9-0.3L26.4,70.3c-1.2,0.9-0.9,1.8,0.5,2l31.2,5.8c3.2-2.3,6.4-4.7,9.5-7.1 L51.6,54.9z" class="st7"/><linearGradient id="SVGID_9_" x1="16.777" x2="79.605" y1="-39.153" y2="69.667" gradientUnits="userSpaceOnUse"><stop offset="0" style="stop-color:#8c42a1"/><stop offset=".389" style="stop-color:#922c88"/><stop offset=".731" style="stop-color:#a02d6e"/><stop offset=".86" style="stop-color:#f3506f"/><stop offset=".985" style="stop-color:#fcb450"/></linearGradient><path d="M65.6,41.2L56,48.3c-1.2,0.9-1.3,2.4-0.2,3.4l16.1,16.1c10.1-7.4,11.5-17.7,4.9-26.2l-6.5-1.4 C68.8,39.9,66.7,40.4,65.6,41.2z" class="st8"/><linearGradient id="SVGID_10_" x1="-42.759" x2="20.068" y1="-4.78" y2="104.04" gradientUnits="userSpaceOnUse"><stop offset="0" style="stop-color:#8c42a1"/><stop offset=".389" style="stop-color:#922c88"/><stop offset=".731" style="stop-color:#a02d6e"/><stop offset=".86" style="stop-color:#f3506f"/><stop offset=".985" style="stop-color:#fcb450"/></linearGradient><path d="M19.1,76.2c-0.3-0.1-1.4,0.6-2.6,1.5L0.3,89.8c-1.7,12.3,8.6,19.3,22.3,11.2c2.6-1.5,5.2-2.9,7.8-4.5 l-9.5-17.9C20.2,77.4,19.4,76.3,19.1,76.2z" class="st9"/></g></svg>